<?xml version="1.0" encoding="utf-8"?>
<!-- Generator: Adobe Illustrator 28.2.0, SVG Export Plug-In . SVG Version: 6.00 Build 0)  -->
<svg version="1.1" id="Layer_1" xmlns="http://www.w3.org/2000/svg" xmlns:xlink="http://www.w3.org/1999/xlink" x="0px" y="0px"
	 viewBox="0 0 590 748" style="enable-background:new 0 0 590 748;" xml:space="preserve">
<style type="text/css">
	.st0{fill:#FFFFFF;}
</style>
<path class="st0" d="M557,438.3c-4,7.6-7.4,15.5-12,22.6c-17.6,27.4-40.6,49.2-68.3,66.2c-1.1,0.7-2.4,1.2-4.6,2.4
	c0-9.6,0-18.2,0-29.5c-23,25.8-49.3,37.1-81.7,30.6c-21-4.2-37.2-15.8-49.1-33.4c-22.4-33.2-14.7-85.8,16.3-107.7
	c0,14.6,0,28.5,0,43.1c11.1,0,21.2,0,32.2,0c0-19.4,0-38.7,0-57.7c24-8.6,51.9,0.9,81.3,27.9c0-10.9,0.3-20.7-0.2-30.5
	c-0.1-2.1-3-4.5-5.1-5.8c-21.2-13.7-44.5-19.9-69.8-17.9c-1.6,0.1-3.3,0-5.4,0c0-31.4,0-62.6,0-95.8c4.1,4.5,7.2,7.8,10.2,11.2
	c49.8,56.2,99.7,112.4,149.6,168.6c2,2.2,4.5,4,6.8,6C557.2,438.4,557,438.3,557,438.3z"/>
<path class="st0" d="M525.5,356c-55.3-63-110.6-126-167.4-190.7c0,4.7,0,7.6,0,10.5c0,58.4,0,116.8,0,175.3c0,4.2,1.4,9.4-5.9,9.8
	c-2.6-31.5-16.1-54.5-49.2-62.2c0.3-0.7,0.5-1.8,1-1.9c28-8.9,40.2-35.7,35.1-66.6c-6.2-37-29.2-55.2-71.6-57.1
	c-10.5-0.5-21-0.1-33.3-0.1c1.9-2.2,2.6-3.3,3.5-4c83.9-62.6,212.8-55.6,284.1,26.5c3.1,3.6,5.3,9.2,5.4,13.9
	c0.4,45.6,0.2,91.3,0.2,136.9c0,3,0,6,0,9C526.7,355.6,526.1,355.8,525.5,356z"/>
<path class="st0" d="M190.6,217.1c0,73,0,143.9,0,216.8c37.7-0.9,74.8-1.9,112.4-2.8c-5.6,63.9,19.7,108.6,87.6,123.3
	c-66.6,11.4-158.5-16-209.4-98.3C132.8,378.1,142.7,280.4,190.6,217.1z"/>
<path class="st0" d="M45.4,433.7c25.1-92.2,49.8-183,74.8-274.8c-38.2,0-75.1,0-113.4,0c2.7-10.1,4.9-19.1,7.6-28
	c0.4-1.5,3.1-3.2,4.8-3.2c46.7-0.2,93.4-0.1,141.2-0.1c-3.4,13.1-6.6,25.4-9.8,37.6c-23.2,87-46.6,173.9-69.6,261
	c-1.6,6.1-4.1,8.1-10.2,7.7C62.8,433.3,54.8,433.7,45.4,433.7z"/>
<path class="st0" d="M221.5,410c0-32.3,0-63.3,0-96.4c21.4,1.1,42.6,0.3,63.2,3.6c22.4,3.6,35.2,24.4,34,49.6
	c-1.1,24.2-13.7,38.1-38.3,41.6c-7.4,1-14.9,1.4-22.4,1.6C246.1,410.1,234.2,410,221.5,410z"/>
<path class="st0" d="M221.6,289.9c0-30.3,0-59.8,0-90.1c20.6-0.1,40.8-1.5,60.6,4c13.7,3.8,22.1,12.7,24.2,26.7
	c1.3,8.2,1.9,16.6,1.2,24.8c-1.4,15.2-9.7,25.8-24.6,30.3C263,291.5,242.5,290,221.6,289.9z"/>
<path class="st0" d="M557.2,438.4c-0.3-2.8-0.7-5.5-0.7-8.3c0-59,0-118,0-176.9c0-1.8,0.2-3.7,0.4-7.8
	c10.1,19.2,16.1,37.5,19.6,56.5c8.4,45,3.4,88.6-15.6,130.4c-1,2.2-2.6,4-3.9,6C557,438.3,557.2,438.4,557.2,438.4z"/>
<g>
	<path class="st0" d="M30.8,707.6c0.7-1.6,1.5-2.4,1.5-2.4v-0.1c0,0-1.2,0.2-2.8,0.2H12.5v6.1H6.6v-11.7h32.9v4.6l-21.7,43.4h-6.9
		L30.8,707.6z"/>
	<path class="st0" d="M44.9,723.6c0-13.8,4.2-24.8,17-24.8c12.8,0,17,11,17,24.8c0,13.9-4.2,24.9-17,24.9
		C49.1,748.5,44.9,737.5,44.9,723.6z M72,723.6c0-10.5-2.2-18.8-10.1-18.8c-7.9,0-10.1,8.3-10.1,18.8c0,10.6,2.2,18.8,10.1,18.8
		C69.7,742.5,72,734.3,72,723.6z"/>
	<path class="st0" d="M100.8,742.4h4.6l15.3-42.7h7.7l15.3,42.7h4.6v5.3h-16.7v-5.3h5.1l-3.7-10.7h-17l-3.7,10.7h5.2v5.3h-16.7
		V742.4z M131.3,726.3l-5.9-16.7c-0.7-2-0.8-3.7-0.8-3.7h-0.2c0,0-0.2,1.7-0.8,3.7l-5.9,16.7H131.3z"/>
	<path class="st0" d="M152.7,742.4h6v-37.5h-6v-5.2h12.7l23.6,34.4c0.8,1.4,1.6,3.5,1.6,3.5h0.2c0,0-0.3-2.4-0.3-3.9v-28.8h-6.1
		v-5.2h19v5.2h-6.1v42.8h-6.7L167,713.3c-0.9-1.4-1.6-3.5-1.6-3.5h-0.2c0,0,0.3,2.4,0.3,3.9v28.7h6.2v5.3h-19V742.4z"/>
	<path class="st0" d="M209.7,742.4h6v-37.5h-6v-5.2h18.8v5.2h-6.1v37.5h6.1v5.3h-18.8V742.4z"/>
	<path class="st0" d="M237.6,704.9h-4.7v-5.2H250v5.2h-5.3l10.8,31.6c0.5,1.7,0.8,3.7,0.8,3.7h0.2c0,0,0.3-2,0.8-3.7l10.8-31.6h-5.3
		v-5.2h17.1v5.2h-4.8L260,747.7h-7.2L237.6,704.9z"/>
	<path class="st0" d="M284.2,742.4h6v-37.5h-6v-5.2H319v11.2h-5.9v-5.6H297v15.4h17v5.6h-17v15.9h17.2v-5.8h5.9v11.4h-35.9V742.4z"
		/>
	<path class="st0" d="M327.2,742.4h6v-37.5h-6v-5.2h20.8c3.4,0,6.2,0.1,8.8,1c5,1.7,8.4,5.9,8.4,12.5c0,6.9-3.8,11.9-9.9,13.5v0.1
		c0,0,1.2,0.7,2,2.2l6.8,11.8c0.7,1.3,1.6,1.6,3.3,1.6h1.4v5.3h-4.1c-4.1,0-5-0.7-6.7-3.6l-7.4-13.1c-1.2-2-2.1-2.7-5-2.7H340v14.1
		h5.9v5.3h-18.7V742.4z M349.7,722.8c5.2,0,8.7-3.4,8.7-9c0-3.7-1.5-6.3-4.5-7.6c-1.6-0.6-3.6-0.9-5.9-0.9h-8v17.5H349.7z"/>
	<path class="st0" d="M380.9,733.3v3.5c0,3.5,4.6,5.6,9.6,5.6c5.5,0,9.5-2.6,9.5-7.3c0-5.6-5.6-7.4-11.6-9.7
		c-6.3-2.4-12.8-5.1-12.8-13.6c0-9,7.3-12.9,15.4-12.9c7.2,0,14.6,2.7,14.6,8v5.6h-6.3v-3.3c0-2.8-4.3-4.3-8.2-4.3
		c-4.7,0-8.4,2.2-8.4,6.6c0,5.1,4.8,6.8,10.2,8.8c7.1,2.7,14.1,5.4,14.1,14.3c0,9.2-7.5,13.9-16.4,13.9c-7.5,0-15.9-3.3-15.9-10.2
		v-5H380.9z"/>
	<path class="st0" d="M410.8,742.4h4.6l15.3-42.7h7.7l15.3,42.7h4.6v5.3h-16.7v-5.3h5.1l-3.7-10.7h-17l-3.7,10.7h5.2v5.3h-16.7
		V742.4z M441.3,726.3l-5.9-16.7c-0.7-2-0.8-3.7-0.8-3.7h-0.2c0,0-0.2,1.7-0.8,3.7l-5.9,16.7H441.3z"/>
	<path class="st0" d="M462.7,742.4h6v-37.5h-6v-5.2h20.8c3.4,0,6.2,0.1,8.8,1c5,1.7,8.4,5.9,8.4,12.5c0,6.9-3.8,11.9-9.9,13.5v0.1
		c0,0,1.2,0.7,2,2.2l6.8,11.8c0.7,1.3,1.6,1.6,3.3,1.6h1.4v5.3h-4.1c-4.1,0-5-0.7-6.7-3.6l-7.4-13.1c-1.2-2-2.1-2.7-5-2.7h-5.7v14.1
		h5.9v5.3h-18.7V742.4z M485.1,722.8c5.2,0,8.7-3.4,8.7-9c0-3.7-1.5-6.3-4.5-7.6c-1.6-0.6-3.6-0.9-5.9-0.9h-8v17.5H485.1z"/>
	<path class="st0" d="M510.1,742.4h6v-37.5h-6v-5.2H529v5.2h-6.1v37.5h6.1v5.3h-18.8V742.4z"/>
	<path class="st0" d="M560,698.9c13.9,0,24.7,10.7,24.7,24.5c0,14.2-10.8,25.2-24.7,25.2c-13.9,0-24.7-11-24.7-25.2
		C535.3,709.6,546,698.9,560,698.9z M560,742.5c9.7,0,17.6-8.3,17.6-19.1c0-10.5-7.9-18.5-17.6-18.5c-9.8,0-17.7,8-17.7,18.5
		C542.3,734.2,550.2,742.5,560,742.5z"/>
</g>
</svg>
