<?xml version="1.0" encoding="utf-8"?>
<!-- Generator: Adobe Illustrator 28.2.0, SVG Export Plug-In . SVG Version: 6.00 Build 0)  -->
<svg version="1.1" id="Layer_1" xmlns="http://www.w3.org/2000/svg" xmlns:xlink="http://www.w3.org/1999/xlink" x="0px" y="0px"
	 viewBox="0 0 590 748" style="enable-background:new 0 0 590 748;" xml:space="preserve">
<style type="text/css">
	.st0{fill:#FFFFFF;}
</style>
<g>
	<path class="st0" d="M16.1,130.1v277.2c0,24.7,20,44.6,44.6,44.6h171.5c26,17,57,27,90.4,27c33.4,0,64.4-10,90.4-27h116.8
		c24.6,0,44.6-20,44.6-44.6V130.1H16.1z M509.6,141.9c7.8,0,14.2,6.4,14.2,14.2c0,7.8-6.4,14.2-14.2,14.2c-7.8,0-14.2-6.3-14.2-14.2
		C495.4,148.3,501.8,141.9,509.6,141.9z M117.4,178.1c0,13,0,226.6,0,226.6H88.6c0,0,0-216.3,0-234.1c0-17.8,35.9-30.9,42.6-24.7
		C137.8,152,117.4,165.1,117.4,178.1z M321.6,437.7c-79.9,0-144.7-64.8-144.7-144.7c0-79.9,64.8-144.7,144.7-144.7
		c79.9,0,144.7,64.8,144.7,144.7C466.4,373,401.6,437.7,321.6,437.7z M545.1,399.4h-62.4V365h62.4V399.4z"/>
	<path class="st0" d="M529.9,84.8c0,0-1,0-2.6,0V48.3h-92.9v36.3c-22.6-2.7-40.8-55.1-40.8-55.1H247.9c0,0-20.2,55.3-42.6,55.3
		c-0.1,0-0.2,0-0.3,0V50.4H112v34.4c-28,0-51.3,0-51.3,0c-21.9,0-40.1,15.9-43.8,36.7h556.8C570,100.7,551.9,84.8,529.9,84.8z
		 M380.5,91.6H269.9V49.7h110.7V91.6z"/>
	<path class="st0" d="M322.2,217.8c-42.2,0-76.4,34.3-76.4,76.4s34.3,76.4,76.4,76.4c42.2,0,76.4-34.3,76.4-76.4
		S364.4,217.8,322.2,217.8z"/>
	<path class="st0" d="M321.6,189.8c-57,0-103.2,46.2-103.2,103.2c0,57,46.2,103.2,103.2,103.2c57,0,103.2-46.2,103.2-103.2
		C424.9,236,378.7,189.8,321.6,189.8z M322.2,377.6c-46,0-83.4-37.4-83.4-83.4c0-46,37.4-83.4,83.4-83.4c46,0,83.4,37.4,83.4,83.4
		C405.6,340.2,368.2,377.6,322.2,377.6z"/>
</g>
<g>
	<path class="st0" d="M4.1,740.6h7.3v-45H4.1v-6.8h22.8v6.8h-7.3v44.7h20.3v-9.4h7.3V747h-43V740.6z"/>
	<path class="st0" d="M53.4,740.9h6.5v-29.3H53v-6.2h14.9v35.5h6.6v6.2H53.4V740.9z M59.7,688.8h8.4v8.2h-8.4V688.8z"/>
	<path class="st0" d="M81.1,740.9h6.5v-29.3h-6.9v-6.2h6.9v-2.1c0-13.4,10.1-15,15-15c2.2,0,3.8,0.2,3.8,0.2v6.6c0,0-1.1-0.2-3-0.2
		c-2.6,0-7.8,0.7-7.8,8.2v2.2h10.1v6.2H95.6v29.3h7.7v6.2H81.1V740.9z"/>
	<path class="st0" d="M132,704.3c11.9,0,18.1,8.7,18.1,19.5c0,1.1-0.2,3.1-0.2,3.1h-30.5c0.5,9.2,7,14.2,14.4,14.2
		c7.3,0,12.4-4.7,12.4-4.7l3.3,5.9c0,0-6.3,5.8-16.2,5.8c-13.1,0-22.1-9.5-22.1-21.8C111.1,712.9,120.1,704.3,132,704.3z
		 M141.8,721.8c-0.2-7.3-4.7-11.1-10-11.1c-6.1,0-11,4.1-12.2,11.1H141.8z"/>
	<path class="st0" d="M178,740.9h6.5v-29.3h-6.9v-6.2h14.9v35.5h6.6v6.2H178V740.9z M184.4,688.8h8.4v8.2h-8.4V688.8z"/>
	<path class="st0" d="M205.7,740.9h6.5v-27.5c0-1.2-0.7-1.8-1.8-1.8h-5.1v-6.2h9.4c3.6,0,5.3,1.6,5.3,4.6v2.1c0,1.3-0.2,2.4-0.2,2.4
		h0.2c0.8-2.2,5.7-10.1,16.2-10.1c9.6,0,13.9,5.4,13.9,16v20.5h6.6v6.2H242v-24.9c0-5.9-1.2-10.5-7.8-10.5c-8.4,0-13.9,7.7-13.9,16
		v13.2h6.6v6.2h-21.1V740.9z"/>
	<path class="st0" d="M283.6,740.6h7.3v-45.4h-7.3v-6.3h22.8v6.3h-7.3v19.4h30.2v-19.4h-7.3v-6.3h22.8v6.3h-7.3v45.4h7.3v6.4h-22.8
		v-6.4h7.3v-19.3h-30.2v19.3h7.3v6.4h-22.8V740.6z"/>
	<path class="st0" d="M376.2,721.4h2.6v-1.6c0-6.6-3.8-8.9-8.9-8.9c-6.6,0-12,4-12,4l-3.2-5.7c0,0,6.1-4.9,15.8-4.9
		c10.6,0,16.2,5.5,16.2,16.1V739c0,1.2,0.7,1.8,1.8,1.8h4.2v6.2h-8.3c-3.7,0-5.2-1.8-5.2-4.5v-0.6c0-1.6,0.3-2.7,0.3-2.7h-0.2
		c0,0-3.6,8.8-13.8,8.8c-6.9,0-13.9-4-13.9-12.6C351.8,722.3,369.2,721.4,376.2,721.4z M367.4,741.8c7.1,0,11.5-7.3,11.5-13.5v-1.7
		h-2.1c-3.8,0-16.9,0.2-16.9,8.2C359.9,738.5,362.6,741.8,367.4,741.8z"/>
	<path class="st0" d="M394.5,705.3h18.7v6.2h-5.4l8.8,24.3c0.7,1.8,0.9,3.9,0.9,3.9h0.2c0,0,0.2-2.1,0.9-3.9l8.9-24.3h-5.4v-6.2H441
		v6.2h-5.2L422.2,747h-9l-13.4-35.5h-5.3V705.3z"/>
	<path class="st0" d="M468.7,721.4h2.6v-1.6c0-6.6-3.8-8.9-8.9-8.9c-6.6,0-12,4-12,4l-3.2-5.7c0,0,6.1-4.9,15.8-4.9
		c10.6,0,16.2,5.5,16.2,16.1V739c0,1.2,0.7,1.8,1.8,1.8h4.2v6.2h-8.3c-3.7,0-5.2-1.8-5.2-4.5v-0.6c0-1.6,0.3-2.7,0.3-2.7H472
		c0,0-3.6,8.8-13.8,8.8c-6.9,0-13.9-4-13.9-12.6C444.4,722.3,461.8,721.4,468.7,721.4z M460,741.8c7.1,0,11.5-7.3,11.5-13.5v-1.7
		h-2.1c-3.8,0-16.9,0.2-16.9,8.2C452.5,738.5,455.2,741.8,460,741.8z"/>
	<path class="st0" d="M491.4,740.9h6.5v-27.5c0-1.2-0.7-1.8-1.8-1.8H491v-6.2h9.4c3.6,0,5.3,1.6,5.3,4.6v2.1c0,1.3-0.2,2.4-0.2,2.4
		h0.2c0.8-2.2,5.7-10.1,16.2-10.1c9.6,0,13.9,5.4,13.9,16v20.5h6.6v6.2h-14.6v-24.9c0-5.9-1.2-10.5-7.8-10.5
		c-8.4,0-13.9,7.7-13.9,16v13.2h6.6v6.2h-21.1V740.9z"/>
	<path class="st0" d="M571.3,721.4h2.6v-1.6c0-6.6-3.8-8.9-8.9-8.9c-6.6,0-12,4-12,4l-3.2-5.7c0,0,6.1-4.9,15.8-4.9
		c10.6,0,16.2,5.5,16.2,16.1V739c0,1.2,0.7,1.8,1.8,1.8h4.2v6.2h-8.3c-3.7,0-5.2-1.8-5.2-4.5v-0.6c0-1.6,0.3-2.7,0.3-2.7h-0.2
		c0,0-3.6,8.8-13.8,8.8c-6.9,0-13.9-4-13.9-12.6C547,722.3,564.4,721.4,571.3,721.4z M562.5,741.8c7.1,0,11.5-7.3,11.5-13.5v-1.7
		h-2.1c-3.8,0-16.9,0.2-16.9,8.2C555,738.5,557.8,741.8,562.5,741.8z"/>
</g>
</svg>
