<?xml version="1.0" encoding="utf-8"?>
<!-- Generator: Adobe Illustrator 28.0.0, SVG Export Plug-In . SVG Version: 6.00 Build 0)  -->
<svg version="1.1" id="Layer_1" xmlns="http://www.w3.org/2000/svg" xmlns:xlink="http://www.w3.org/1999/xlink" x="0px" y="0px"
	 viewBox="0 0 512 512" style="enable-background:new 0 0 512 512;" xml:space="preserve">
<style type="text/css">
	.st0{fill:#FFFFFF;}
</style>
<path d="M127.5,338.2C127.3,338.4,127.7,338,127.5,338.2C127.5,338.2,127.5,338.2,127.5,338.2C127.5,338.2,127.5,338.2,127.5,338.2z
	"/>
<path class="st0" d="M394.7,71.1c13.7-13.8,13.6-36.1-0.2-49.8c-13.7-13.6-35.9-13.6-49.6,0L78,288.3l-57.2,101
	c-2.6,4.2,2.7,9.4,6.9,6.8l99.8-57.9L394.7,71.1z M351.9,28.4c9.9-9.9,25.8-9.9,35.7,0s9.9,25.8,0,35.7l0,0l-30.2,30.2l-35.7-35.7
	L351.9,28.4z M314.6,65.7l35.7,35.7L330,121.7L294.3,86L314.6,65.7z M38.5,378.2l23-40.7l17.3,17.3L38.5,378.2z M87.8,349.6
	l-21.2-21.2L83,299.6l33.5,33.5L87.8,349.6z M88.9,291.4L287.2,93.1l35.7,35.7L124.6,327L88.9,291.4z"/>
<path d="M78,288.3C78,288.3,78,288.3,78,288.3C78,288.3,78,288.3,78,288.3C78.1,288,77.8,288.5,78,288.3z"/>
<path class="st0" d="M463.8,104.7c-10.3,5.9-23.9,15.4-40.2,28.4c-33.3,26.4-75,64.2-117.1,106.4c-50.7,50.7-95.6,101.3-120.6,135.8
	c-38.7-1-62.4,35.3-78.8,67.4c-16.2,31.6-35.8,28.9-36.5,28.8c-4.8-1-8,5.5-4.2,8.7C81.6,494,97.4,501,113.5,501
	c4.1,0,8.3-0.5,12.3-1.4c49.4-11,82.9-84.6,87.5-95.2c34.6-24.9,85.6-70,136.8-121.3c42.2-42.2,80-83.8,106.4-117.1
	c12.9-16.3,22.5-29.9,28.4-40.2c5.4-9.4,10.1-19.9,4.4-25.5S473.2,99.3,463.8,104.7z M190.5,389.6l1.3,1.3
	c-13.6,22.6-29.1,43.9-46.6,63.7c-12.9,14.7-26.2,20.9-37.8,22.9c13-6.9,25.2-19.3,36.2-37C169.9,398.6,185.8,391,190.5,389.6z
	 M116,447.2c14.4-28.1,32.7-56.6,60.3-61.3c-9.7,6.9-23.4,21-41.1,49.4c-13.3,21.3-26.4,31.3-37.1,35.6
	C104.1,465.8,110.3,458.3,116,447.2z M123.6,489.9c-8.5,1.9-17.4,1.3-25.6-1.6c0.1,0,0.2,0,0.3,0c14.8,0,35.3-5,54.5-27
	c17.3-19.6,32.8-40.7,46.4-63l4.1,4.1C196.6,417.1,165.4,480.6,123.6,489.9L123.6,489.9z M209.7,394.7l-14.8-14.8
	c13.3-18.2,32-40.8,54.1-65.4l26.2,26.2C250.5,362.7,227.9,381.4,209.7,394.7z M445.2,164.1c-26,32.3-62.2,72-102.1,111.9
	c-20.6,20.6-41.1,40.2-60.6,57.9l-26.9-26.9c17.7-19.4,37.3-40,57.9-60.6c39.9-39.9,79.6-76.2,111.9-102.1
	c39.7-31.9,52.9-36.1,56.4-36.6C481.3,111.3,477.1,124.5,445.2,164.1L445.2,164.1z"/>
</svg>
