<?xml version="1.0" encoding="utf-8"?>
<!-- Generator: Adobe Illustrator 28.2.0, SVG Export Plug-In . SVG Version: 6.00 Build 0)  -->
<svg version="1.1" id="Layer_1" xmlns="http://www.w3.org/2000/svg" xmlns:xlink="http://www.w3.org/1999/xlink" x="0px" y="0px"
	 viewBox="0 0 590 748" style="enable-background:new 0 0 590 748;" xml:space="preserve">
<style type="text/css">
	.st0{fill:#40C0BE;}
	.st1{fill:#FFFFFF;}
</style>
<path class="st0" d="M205.5,338.2C205.3,338.4,205.7,338,205.5,338.2L205.5,338.2L205.5,338.2z"/>
<path class="st1" d="M472.7,71.1c13.7-13.8,13.6-36.1-0.2-49.8c-13.7-13.6-35.9-13.6-49.6,0L156,288.3l-57.2,101
	c-2.6,4.2,2.7,9.4,6.9,6.8l99.8-57.9L472.7,71.1z M429.9,28.4c9.9-9.9,25.8-9.9,35.7,0s9.9,25.8,0,35.7l0,0l-30.2,30.2l-35.7-35.7
	L429.9,28.4z M392.6,65.7l35.7,35.7L408,121.7L372.3,86L392.6,65.7z M116.5,378.2l23-40.7l17.3,17.3L116.5,378.2z M165.8,349.6
	l-21.2-21.2l16.4-28.8l33.5,33.5L165.8,349.6z M166.9,291.4L365.2,93.1l35.7,35.7L202.6,327L166.9,291.4z"/>
<path class="st0" d="M156,288.3L156,288.3L156,288.3C156.1,288,155.8,288.5,156,288.3z"/>
<path class="st1" d="M541.8,104.7c-10.3,5.9-23.9,15.4-40.2,28.4c-33.3,26.4-75,64.2-117.1,106.4c-50.7,50.7-95.6,101.3-120.6,135.8
	c-38.7-1-62.4,35.3-78.8,67.4c-16.2,31.6-35.8,28.9-36.5,28.8c-4.8-1-8,5.5-4.2,8.7c15.2,13.8,31,20.8,47.1,20.8
	c4.1,0,8.3-0.5,12.3-1.4c49.4-11,82.9-84.6,87.5-95.2c34.6-24.9,85.6-70,136.8-121.3c42.2-42.2,80-83.8,106.4-117.1
	c12.9-16.3,22.5-29.9,28.4-40.2c5.4-9.4,10.1-19.9,4.4-25.5S551.2,99.3,541.8,104.7z M268.5,389.6l1.3,1.3
	c-13.6,22.6-29.1,43.9-46.6,63.7c-12.9,14.7-26.2,20.9-37.8,22.9c13-6.9,25.2-19.3,36.2-37C247.9,398.6,263.8,391,268.5,389.6z
	 M194,447.2c14.4-28.1,32.7-56.6,60.3-61.3c-9.7,6.9-23.4,21-41.1,49.4c-13.3,21.3-26.4,31.3-37.1,35.6
	C182.1,465.8,188.3,458.3,194,447.2z M201.6,489.9c-8.5,1.9-17.4,1.3-25.6-1.6c0.1,0,0.2,0,0.3,0c14.8,0,35.3-5,54.5-27
	c17.3-19.6,32.8-40.7,46.4-63l4.1,4.1C274.6,417.1,243.4,480.6,201.6,489.9L201.6,489.9z M287.7,394.7l-14.8-14.8
	c13.3-18.2,32-40.8,54.1-65.4l26.2,26.2C328.5,362.7,305.9,381.4,287.7,394.7z M523.2,164.1c-26,32.3-62.2,72-102.1,111.9
	c-20.6,20.6-41.1,40.2-60.6,57.9L333.6,307c17.7-19.4,37.3-40,57.9-60.6c39.9-39.9,79.6-76.2,111.9-102.1
	c39.7-31.9,52.9-36.1,56.4-36.6C559.3,111.3,555.1,124.5,523.2,164.1L523.2,164.1z"/>
<g>
	<path class="st1" d="M1.9,740.5h7.3v-46H1.9v-6.4h27.5c3.6,0,7.2,0.2,10.1,1.6c6.1,2.6,10,8.8,10,16.7c0,8.3-4.3,14.9-11.1,17.3
		c-2.8,1-5.6,1.3-8.8,1.3H17.6v15.6h7.4v6.5H1.9V740.5z M28.6,718c2.7,0,4.8-0.4,6.6-1.2c3.8-1.7,5.9-5.4,5.9-10.5
		c0-4.8-1.9-8.3-5.3-10c-1.8-1-4.3-1.4-7.2-1.4h-11V718H28.6z"/>
	<path class="st1" d="M76,703.8c12,0,18.3,8.8,18.3,19.8c0,1.1-0.3,3.1-0.3,3.1H63.1c0.5,9.3,7.1,14.4,14.6,14.4
		c7.3,0,12.6-4.8,12.6-4.8l3.3,5.9c0,0-6.3,5.8-16.4,5.8c-13.3,0-22.4-9.6-22.4-22.1C54.9,712.4,64,703.8,76,703.8z M85.9,721.5
		c-0.3-7.4-4.8-11.3-10.1-11.3c-6.2,0-11.2,4.2-12.4,11.3H85.9z"/>
	<path class="st1" d="M101.9,740.7h6.3v-27.9c0-1.3-0.7-1.8-1.8-1.8h-5.3v-6.3h9.5c3.7,0,5.4,1.5,5.4,4.9v2.7c0,1.7-0.2,2.9-0.2,2.9
		h0.2c1.9-6.2,6.8-11,13.4-11c1.1,0,2.1,0.2,2.1,0.2v8c0,0-1-0.2-2.3-0.2c-9,0-12.9,9.1-12.9,17.4v11.2h6.3v6.3h-20.7V740.7z"/>
	<path class="st1" d="M136.4,733.4h7.1v2.8c0,3.6,5,5.3,9.7,5.3c4.8,0,8.5-1.9,8.5-5.4c0-4.3-4.7-5.6-10.5-7.7
		c-6.3-2.3-13.2-5.2-13.2-12.9c0-8.3,8.3-11.7,15.6-11.7c5.9,0,14.6,2.3,14.6,8.5v5.1h-7.1v-2.8c0-2.6-3.3-4.3-7.4-4.3
		c-4,0-7.5,1.7-7.5,5.1c0,4,4.7,5.7,9.8,7.4c6.5,2.2,13.9,4.9,13.9,12.8c0,8-7.3,12.4-16.9,12.4c-7.7,0-16.5-3.4-16.5-10.1V733.4z"
		/>
	<path class="st1" d="M199.3,703.8c12.6,0,22.8,9.3,22.8,22c0,12.9-10.2,22.2-22.8,22.2s-22.8-9.3-22.8-22.2
		C176.6,713,186.7,703.8,199.3,703.8z M199.3,741c7.9,0,14.5-6.3,14.5-15.2c0-8.8-6.6-15-14.5-15c-8,0-14.5,6.3-14.5,15
		C184.8,734.6,191.3,741,199.3,741z"/>
	<path class="st1" d="M229.1,740.7h6.6v-27.9c0-1.3-0.7-1.8-1.8-1.8h-5.2v-6.3h9.5c3.7,0,5.3,1.6,5.3,4.7v2.2c0,1.3-0.3,2.4-0.3,2.4
		h0.2c0.8-2.3,5.8-10.3,16.4-10.3c9.7,0,14,5.4,14,16.2v20.8h6.7v6.3h-14.8v-25.2c0-5.9-1.2-10.6-7.9-10.6
		c-8.5,0-14.1,7.8-14.1,16.2v13.4h6.7v6.3h-21.4V740.7z"/>
	<path class="st1" d="M310,721h2.7v-1.6c0-6.7-3.8-9-9-9c-6.7,0-12.1,4.1-12.1,4.1l-3.3-5.8c0,0,6.2-5,16-5
		c10.8,0,16.4,5.6,16.4,16.3v18.9c0,1.3,0.7,1.8,1.8,1.8h4.3v6.3h-8.4c-3.8,0-5.3-1.8-5.3-4.6v-0.6c0-1.7,0.3-2.8,0.3-2.8h-0.2
		c0,0-3.7,8.9-13.9,8.9c-7,0-14-4.1-14-12.8C285.4,722,303,721,310,721z M301.2,741.7c7.2,0,11.6-7.3,11.6-13.7v-1.8h-2.1
		c-3.8,0-17.1,0.2-17.1,8.3C293.6,738.3,296.3,741.7,301.2,741.7z"/>
	<path class="st1" d="M335.6,694.3h-7v-6.3h15.1v46.4c0,3.6,0.8,6,4.5,6c1.3,0,2.3-0.1,2.3-0.1l-0.1,6.7c0,0-1.7,0.2-3.6,0.2
		c-6,0-11.2-2.4-11.2-12.3V694.3z"/>
	<path class="st1" d="M375.1,688.1h21v6.4h-7l9.2,38.7c0.4,2.1,0.7,4.4,0.7,4.4h0.2c0,0,0.3-2.3,0.8-4.4l12.4-45.1h7.1l12.3,45.1
		c0.6,2.1,0.8,4.4,0.8,4.4h0.3c0,0,0.2-2.3,0.6-4.4l9.2-38.7h-7v-6.4h21v6.4H451L437.8,747h-9.5l-11.5-41.8
		c-0.6-2.1-0.8-4.7-0.8-4.7h-0.3c0,0-0.2,2.6-0.8,4.7L403.4,747h-9.5l-13.1-52.5h-5.7V688.1z"/>
	<path class="st1" d="M480.3,703.8c12.6,0,22.8,9.3,22.8,22c0,12.9-10.2,22.2-22.8,22.2c-12.6,0-22.8-9.3-22.8-22.2
		C457.5,713,467.7,703.8,480.3,703.8z M480.3,741c7.9,0,14.5-6.3,14.5-15.2c0-8.8-6.6-15-14.5-15c-8,0-14.5,6.3-14.5,15
		C465.8,734.6,472.3,741,480.3,741z"/>
	<path class="st1" d="M510.3,740.7h6.3v-27.9c0-1.3-0.7-1.8-1.8-1.8h-5.3v-6.3h9.5c3.7,0,5.4,1.5,5.4,4.9v2.7c0,1.7-0.2,2.9-0.2,2.9
		h0.2c1.9-6.2,6.8-11,13.4-11c1.1,0,2.1,0.2,2.1,0.2v8c0,0-1-0.2-2.3-0.2c-9,0-12.9,9.1-12.9,17.4v11.2h6.3v6.3h-20.7V740.7z"/>
	<path class="st1" d="M543.7,740.7h6.7v-46.4h-7.1v-6.3h15.1V721h6.2l8.4-9.9h-5.5v-6.3h19.2v6.3h-5.6l-10.4,12.2v0.2
		c0.1,0,1.4,0.6,3.1,3.4l7.2,12.3c0.8,1.3,1.5,1.7,3.7,1.7h2.7v6.3h-6.3c-3.8,0-5.1-0.7-6.9-3.9l-8.3-14.3c-0.9-1.5-2.1-1.7-3.9-1.7
		h-3.3v13.6h5.7v6.3h-20.4V740.7z"/>
</g>
</svg>
