<?xml version="1.0" encoding="utf-8"?>
<!-- Generator: Adobe Illustrator 28.0.0, SVG Export Plug-In . SVG Version: 6.00 Build 0)  -->
<svg version="1.1" id="Layer_1" xmlns="http://www.w3.org/2000/svg" xmlns:xlink="http://www.w3.org/1999/xlink" x="0px" y="0px"
	 viewBox="0 0 432 576" style="enable-background:new 0 0 432 576;" xml:space="preserve">
<style type="text/css">
	.st0{fill:#FFFFFF;}
</style>
<path class="st0" d="M36.1,429.9h-8.2v-9.2h30v9.2h-9.3l18.8,55.4c1,3,1.4,6.6,1.4,6.6h0.4c0,0,0.5-3.6,1.4-6.6l18.8-55.4h-9.3v-9.2
	h30v9.2h-8.3l-26.6,74.9H62.7L36.1,429.9z M148.8,419.3c24.3,0,43.2,18.7,43.2,42.9c0,24.8-18.9,44.1-43.2,44.1
	c-24.4,0-43.2-19.3-43.2-44.1C105.6,438,124.4,419.3,148.8,419.3z M148.8,495.7c17,0,30.9-14.5,30.9-33.5
	c0-18.3-13.8-32.4-30.9-32.4c-17.2,0-31,14.1-31,32.4C117.9,481.1,131.7,495.7,148.8,495.7z M239.5,419.3c10.1,0,32,3.7,32,16.7
	v10.2h-11.1v-6.6c0-7.4-12.7-10.1-20.5-10.1c-18,0-31.2,13.2-31.2,32.3c0,19.9,13.6,34.1,31.9,34.1c6,0,21-2.1,21-9.9v-6.6h11.1
	v10.2c0,12.4-21.1,16.6-32.8,16.6c-25.3,0-43.5-19.4-43.5-44C196.5,437.7,215.2,419.3,239.5,419.3z M277.2,495.6h10.5v-65.6h-10.5
	v-9.2h60.9v19.5h-10.4v-9.8h-28.1v27h29.8v9.8h-29.8v27.8h30.1v-10.1h10.4v19.9h-62.9V495.6z M356.9,479.6v6.2c0,6.2,8,9.9,16.8,9.9
	c9.6,0,16.7-4.5,16.7-12.9c0-9.8-9.9-13-20.3-17c-11.1-4.2-22.4-8.9-22.4-23.8c0-15.8,12.7-22.6,26.9-22.6
	c12.6,0,25.5,4.8,25.5,13.9v9.9h-11.1v-5.8c0-4.9-7.5-7.5-14.4-7.5c-8.2,0-14.8,3.8-14.8,11.6c0,8.9,8.5,11.9,17.9,15.5
	c12.4,4.6,24.7,9.4,24.7,25c0,16.1-13.1,24.4-28.7,24.4c-13.1,0-27.8-5.8-27.8-17.9v-8.8H356.9z M46.9,528.7c7.2,0,9.7,5.3,9.7,5.3
	h0.1c0,0-0.2-1-0.2-2.4v-10h-5.2V517h11.3v37.9c0,0.9,0.5,1.4,1.4,1.4h3.2v4.7h-6.3c-2.8,0-3.9-1.4-3.9-3.4v-0.4
	c0-1.1,0.2-1.7,0.2-1.7H57c0,0-2.6,6.3-10.7,6.3c-8.5,0-13.8-6.7-13.8-16.5C32.6,535.2,38.4,528.7,46.9,528.7z M47.6,556.5
	c4.7,0,9.1-3.4,9.1-11.2c0-5.8-2.9-11.3-8.9-11.3c-5,0-9.1,4-9.1,11.2C38.7,552,42.4,556.5,47.6,556.5z M83.4,528.7
	c9,0,13.6,6.6,13.6,14.8c0,0.8-0.2,2.3-0.2,2.3h-23c0.4,7,5.3,10.7,10.9,10.7c5.5,0,9.4-3.5,9.4-3.5l2.5,4.4c0,0-4.7,4.4-12.3,4.4
	c-9.9,0-16.7-7.2-16.7-16.5C67.7,535.2,74.5,528.7,83.4,528.7z M90.9,541.9c-0.2-5.5-3.6-8.4-7.5-8.4c-4.6,0-8.3,3.1-9.2,8.4H90.9z
	 M116.2,521.7H111V517h11.3v34.6c0,2.7,0.6,4.5,3.4,4.5c1,0,1.7-0.1,1.7-0.1l-0.1,5c0,0-1.2,0.1-2.7,0.1c-4.5,0-8.3-1.8-8.3-9.2
	V521.7z M146.7,541.6h2v-1.2c0-5-2.9-6.7-6.7-6.7c-5,0-9,3.1-9,3.1l-2.4-4.3c0,0,4.6-3.7,12-3.7c8,0,12.3,4.2,12.3,12.1v14.1
	c0,0.9,0.5,1.4,1.4,1.4h3.2v4.7H153c-2.8,0-3.9-1.4-3.9-3.4v-0.4c0-1.2,0.2-2.1,0.2-2.1h-0.1c0,0-2.7,6.7-10.4,6.7
	c-5.2,0-10.5-3.1-10.5-9.5C128.3,542.3,141.5,541.6,146.7,541.6z M140.1,557c5.4,0,8.7-5.5,8.7-10.2v-1.3h-1.6
	c-2.9,0-12.8,0.1-12.8,6.2C134.4,554.5,136.5,557,140.1,557z M175.4,556.1h5.5v-34.3h-5.5V517h30.5v10.4h-5.4v-5h-13.3v14.6h15.2
	v5.1h-15.2v14.1h6v4.9h-17.7V556.1z M207.4,556.3h4.7v-20.8c0-0.9-0.5-1.4-1.4-1.4h-3.9v-4.7h7.1c2.7,0,4,1.1,4,3.7v2
	c0,1.2-0.1,2.2-0.1,2.2h0.1c1.4-4.6,5.1-8.2,10-8.2c0.8,0,1.6,0.1,1.6,0.1v6c0,0-0.7-0.2-1.7-0.2c-6.7,0-9.6,6.8-9.6,13v8.3h4.7v4.7
	h-15.4V556.3z M246.3,528.7c9.4,0,17,6.9,17,16.4c0,9.6-7.6,16.6-17,16.6c-9.4,0-17-7-17-16.6C229.3,535.6,236.9,528.7,246.3,528.7z
	 M246.3,556.5c5.9,0,10.8-4.7,10.8-11.3c0-6.5-4.9-11.2-10.8-11.2c-6,0-10.8,4.7-10.8,11.2C235.5,551.7,240.3,556.5,246.3,556.5z
	 M264.4,556.3h4.9v-20.8c0-0.9-0.5-1.4-1.4-1.4h-3.9v-4.7h7.1c2.7,0,4,1.2,4,3.5v1.6c0,1-0.2,1.8-0.2,1.8h0.1
	c0.6-1.7,4.3-7.7,12.3-7.7c7.2,0,10.5,4,10.5,12.1v15.5h5v4.7h-11v-18.8c0-4.4-0.9-7.9-5.9-7.9c-6.4,0-10.5,5.8-10.5,12.1v10h5v4.7
	h-15.9V556.3z M305.9,534.1h-5.3v-4.7h5.4v-8.7h5.9v8.7h7.5v4.7H312v14.8c0,6.4,4.4,7.2,6.7,7.2c0.9,0,1.4-0.1,1.4-0.1v5
	c0,0-0.9,0.1-2.2,0.1c-4,0-12-1.2-12-11.8V534.1z M335.6,528.7c9,0,13.6,6.6,13.6,14.8c0,0.8-0.2,2.3-0.2,2.3h-23
	c0.4,7,5.3,10.7,10.9,10.7c5.5,0,9.4-3.5,9.4-3.5l2.5,4.4c0,0-4.7,4.4-12.3,4.4c-9.9,0-16.7-7.2-16.7-16.5
	C319.9,535.2,326.7,528.7,335.6,528.7z M343,541.9c-0.2-5.5-3.6-8.4-7.5-8.4c-4.6,0-8.3,3.1-9.2,8.4H343z M351.2,556.3h4.7v-20.8
	c0-0.9-0.5-1.4-1.4-1.4h-3.9v-4.7h7.1c2.7,0,4,1.1,4,3.7v2c0,1.2-0.1,2.2-0.1,2.2h0.1c1.4-4.6,5.1-8.2,10-8.2c0.8,0,1.6,0.1,1.6,0.1
	v6c0,0-0.7-0.2-1.7-0.2c-6.7,0-9.6,6.8-9.6,13v8.3h4.7v4.7h-15.4V556.3z M391.5,541.6h2v-1.2c0-5-2.9-6.7-6.7-6.7c-5,0-9,3.1-9,3.1
	l-2.4-4.3c0,0,4.6-3.7,12-3.7c8,0,12.3,4.2,12.3,12.1v14.1c0,0.9,0.5,1.4,1.4,1.4h3.2v4.7h-6.3c-2.8,0-3.9-1.4-3.9-3.4v-0.4
	c0-1.2,0.2-2.1,0.2-2.1H394c0,0-2.7,6.7-10.4,6.7c-5.2,0-10.5-3.1-10.5-9.5C373.1,542.3,386.3,541.6,391.5,541.6z M384.9,557
	c5.4,0,8.7-5.5,8.7-10.2v-1.3H392c-2.9,0-12.8,0.1-12.8,6.2C379.2,554.5,381.3,557,384.9,557z"/>
<path class="st0" d="M302.5,114.1c-9.9-8.8-21.2-16-33.4-21.5c6.7-5.1,11.5-12.6,8.9-22.8c-4.9-19.4,19.8-26.8,29.7-33.2
	c-16.1,21.8-11.9,32.1-5.3,45.2C309,94.9,306.7,106.4,302.5,114.1z M123.6,87.4c10.2,2.9,14.3,10.9,15.3,19.2
	c10.7-7.8,22.5-14,35.3-18.3c-4.7-7.5-13.5-15.2-27.9-16.1c-14.6-0.8-25.7-2.4-36.5-27.2C110.3,56.8,104.4,81.9,123.6,87.4z
	 M202.1,82.2c4.6-0.5,9.2-0.7,13.9-0.7c8.8,0,17.5,0.9,25.8,2.6c-0.3-8.8-4-19.9-16.2-27.9c-12.3-8-21.1-14.9-18-41.8
	c-5.4,10.5-23.1,29.2-9.2,43.6C205.8,65.5,205.4,74.5,202.1,82.2z M356.1,142.6c0.8-14.6,2.4-25.7,27.2-36.5
	c-11.8,0.5-36.8-5.4-42.4,13.9c-2.9,10.2-10.9,14.3-19.2,15.3c7.8,10.7,14,22.5,18.3,35.3C347.5,165.8,355.2,157.1,356.1,142.6z
	 M73.5,150.3c10.2-2.6,17.8,2.3,22.8,8.9c5.4-12.3,12.7-23.5,21.5-33.4c-7.8-4.1-19.3-6.5-32.3,0c-13.1,6.6-23.5,10.8-45.2-5.3
	C46.7,130.5,54.1,155.2,73.5,150.3z M358.5,274.3c-10.2,2.6-17.8-2.3-22.8-8.9c-5.4,12.3-12.7,23.5-21.5,33.4
	c7.8,4.1,19.3,6.5,32.3,0c13.1-6.6,23.5-10.8,45.2,5.3C385.3,294.1,377.9,269.4,358.5,274.3z M229.9,342.4
	c-4.6,0.5-9.2,0.7-13.9,0.7c-8.8,0-17.5-0.9-25.8-2.6c0.3,8.8,4,19.9,16.2,27.9c12.3,8,21.1,14.9,18,41.8
	c5.4-10.5,23.1-29.2,9.2-43.6C226.2,359.1,226.6,350.1,229.9,342.4z M308.4,337.2c-10.2-2.9-14.3-10.9-15.3-19.2
	c-10.7,7.8-22.5,14-35.3,18.3c4.7,7.5,13.5,15.2,27.9,16.1c14.6,0.8,25.7,2.4,36.5,27.2C321.7,367.8,327.6,342.7,308.4,337.2z
	 M370.4,194.8c-7.6,7.3-16.6,6.9-24.3,3.7c0.5,4.6,0.7,9.2,0.7,13.9c0,8.8-0.9,17.5-2.6,25.8c8.8-0.3,19.9-4,27.9-16.2
	c8-12.3,14.9-21.1,41.8-18C403.5,198.5,384.8,180.8,370.4,194.8z M85.9,226.2c-0.5-4.6-0.7-9.2-0.7-13.9c0-8.8,0.9-17.5,2.6-25.8
	c-8.8,0.3-19.9,4-27.9,16.2c-8,12.3-14.9,21.1-41.8,18c10.5,5.4,29.2,23.1,43.6,9.2C69.2,222.5,78.2,222.9,85.9,226.2z M129.5,342.7
	c6.6,13.1,10.8,23.5-5.3,45.2c9.9-6.3,34.6-13.8,29.7-33.2c-2.6-10.2,2.3-17.8,8.9-22.8c-12.3-5.4-23.5-12.7-33.4-21.5
	C125.3,318.2,123,329.7,129.5,342.7z M75.9,282c-0.8,14.6-2.4,25.7-27.2,36.5c11.8-0.5,36.8,5.4,42.4-13.9
	c2.9-10.2,10.9-14.3,19.2-15.3c-7.8-10.7-14-22.5-18.3-35.3C84.5,258.7,76.8,267.5,75.9,282z M254.4,168.4
	c-6.3-0.1-12.5,0.6-18.3,3.3c-4.5,2.2-7.8,5.6-10.5,10c14.1,5.8,36.6,1,44.8-9.2c-1.8-0.8-3.4-1.6-5.2-2.3
	C261.7,168.9,258.1,168.5,254.4,168.4z M228.5,181.3c2.2-1.9,4.4-3.1,7.3-3.7c0.7,2.6,2,4.3,4.2,5.4
	C236.2,182.9,232.4,182.6,228.5,181.3z M239.8,178.9c-1.1,0-1.9-0.8-1.9-1.8c0-1,0.9-1.9,1.8-1.9c1,0,1.9,0.9,1.9,1.9
	C241.7,178,240.8,178.9,239.8,178.9z M250.6,181.8c3-1.5,2.8-6.5,1.8-7.9c4.9-0.7,9.5-0.2,14.2,0.2
	C265.2,176.4,256.3,180.6,250.6,181.8z M254.2,151.8c-10.6,1.2-20.6,3.7-31,6.1c-5.8,1.4-11.6,2.9-17.4,4.5
	c-2.8,0.8-3.1,2.2-0.9,4.1c2,1.8,4.2,3.3,6.3,4.9c1.9,1.5,4,1.9,6.3,1.2c4.2-1.2,8.4-2.4,12.6-3.7c9.5-3.1,19-6.4,28.8-8.7
	c3.9-0.9,7.8-1.1,11.6,0.3c1.4,0.5,2.9,0.9,4.3,1.3c0.1-0.2,0.2-0.4,0.2-0.6c-3.9-2.3-7.9-4.6-11.7-7
	C260.7,152.6,257.4,151.5,254.2,151.8z M261.7,157.6c0,0.2,0,0.4-0.1,0.6c-4.9-1.3-9.4,0.2-13.8,2c-6.7,2.6-13.4,5-20.1,7.6
	c-2.3,0.9-4.4,1-6.7-0.1c-3-1.5-6.2-2.6-9.3-4.4c3.5-1,6.9-2.1,10.4-2.9c7.8-1.9,15.7-3.7,23.5-5.4c1.7-0.4,3.5-0.5,5.3-0.7
	c2.3-0.3,4.4,0,6.5,1.1C258.8,156.2,260.2,156.9,261.7,157.6z M216,88.2c-68.4,0-124.1,55.7-124.1,124.1
	c0,68.4,55.7,124.1,124.1,124.1c68.4,0,124.1-55.7,124.1-124.1C340.1,143.9,284.4,88.2,216,88.2z M319.8,243
	c-1.5,1.9-3.5,5.4-3.5,5.4s-6.5-4.2-8-14.6C313.6,240.4,317.1,242.4,319.8,243z M305.6,159.6c-0.1,0.8-1.7,6.9-4.2,10.9
	c-2.3,3.6-5.4,6.6-9.6,8.9c-3.9,2.1-8,4.1-12,6c-7.1,3.4-13.5,7.7-18.9,13.5c-4.3,4.6-7.7,9.9-10,15.8c-3.4,8.5-5.5,17.4-6.4,26.5
	c-0.4,3.7-0.9,7.5-1.7,11.2c-2,9.3-7.5,15.5-16.7,18.1c-3.2,0.9-6.4,1.6-9.7,2.2c-2.2,0.5-4.5,0.4-6.6-0.4c-2.8-1.1-3.6-2.8-2.7-5.7
	c0.9-2.7,0.8-2.8-1.6-6.2c0.1-0.1,0.2-0.3,0.3-0.3c4.6,0.2,8.3-1.7,11.8-4.5c3.8-3.1,7.2-6.4,9.8-10.6c4.1-6.6,1.1-12-2.6-15.1
	c-2.3-2-5.1-3.5-8-4.3c-4.2-1.2-8.5-2.1-12.8-3.1c-0.5-0.1-1-0.2-1.6-0.3c3.3-3.7,4.9-5.7-0.9-12.4c2.6-0.6,5.1-0.6,7.5,0
	c2.4,0.5,4.9,1.2,7.2,2c4.5,1.5,8.7,0.8,12.7-1.4c3-1.6,5.3-4.3,4.9-7.7c-0.3-3.2-3.1-4.9-7.3-5.9c-4.2-1-7.2-0.4-9.6,4.6
	c-0.8,1.6-1.3,3.3-2,5c-0.3,0.7-0.6,1.4-0.9,2.2c-1.4-0.3-2.7-0.5-3.9-0.9c-2.8-0.8-5.6-0.7-8.5,0.1c-1.8,0.5-3.6,1.1-5.5,1.3
	c-3,0.3-4.1-0.4-4.6-3.5c-0.4-2.4-0.5-4.8-0.3-7.2c0.7-10.4,2.2-20.7,4.5-30.8c0.8-3.5,1.6-7,2.4-10.5c0.2-0.8,0.4-1.6,0.6-2.3
	c1.1-3.9,3.6-6.3,7.6-7.2c5.2-1.1,10.3-2.2,15.5-3.2c12-2.2,24.1-4.4,36.2-6.5c3.9,4.3,9,8.5,14.9,12.2
	C285,157.6,297.3,160.9,305.6,159.6z M296.1,203.1c1,10.7,4.2,19.2,6.9,27c-3.4,3.8-7.3,7.2-11.6,10.2c-8,5.5-16.1,10.7-25,14.6
	c-3,1.3-6.2,2.4-9.4,3.2c-6.1,1.6-11.3-3.3-10.3-10.7c1.5-11.9,3.2-23.9,8.8-34.9c3.9-7.6,9.3-13.8,16.5-18.4
	c7.9-5,16.3-8.7,25.5-10.3C296.2,189.8,295.4,196.4,296.1,203.1z M144.5,279.6c3.3,0.4,5.5-0.7,6.8-1.5c4.4-2.6,8.1-5.9,10.7-10.3
	c2.7-4.4,1.9-8.6-2-12c-2.7-2.3-6-3.5-9.4-4.3c-2.6-0.7-5.2-1.1-8.1-1.7c3.2-3.5,3.1-5-0.5-9.6c1.6-0.8,3.3-0.6,5-0.3
	c2.2,0.5,4.3,1.1,6.5,1.8c3.2,1,6.2,0.6,9.1-0.7c0.6-0.3,1.1-0.6,1.6-0.9c1.9-1.4,3.3-3.3,3.1-5.6c-0.2-2.1-2.2-3.1-4-4
	c-0.2-0.1-0.5-0.2-0.7-0.3c-4.7-1.6-6.7-0.8-8.8,3.8c-0.7,1.6-1.3,3.3-2,5.2c-1-0.2-1.9-0.3-2.8-0.6c-2.4-0.7-4.8-0.6-7.1,0.1
	c-1.4,0.4-2.8,0.8-4.2,1c-2.1,0.2-3.1-0.4-3.5-2.4c-0.3-2.1-0.5-4.3-0.3-6.4c0.6-9.6,2.3-19,4.5-28.3c0.3-1.4,0.7-2.8,1-4.2
	c0.9-4.3,3.5-6.6,7.8-7.4c6.5-1.2,13-2.5,19.5-3.8c5.5-1,11.1-2,16.6-3c0.9-0.2,1.7-0.3,2.9-0.4c0,0,0,0,0,0l0.4-0.1l0-1.2l0,0
	c0.1,5.3,0.1,9.9,0.1,11.1c0,0.9,0,2.2,0.1,3.5l0,0c-4.4,2.2-8.4,4-12.7,6.1c-1.5,0.8-3.1,0.8-4.7,0.2c-3.7-1.4-7.4-3-11.4-4.6
	c3.5-1.9,28.7-7.3,28.7-7.3l0-2.1c0,0-24.6,5.4-32.1,7.1c-0.5,0.1-1,0.3-1.5,0.5c-1.4,0.7-2,1.7-1.1,3c2,2.9,4.2,5.8,6.5,8.5
	c0.5,0.6,1.8,0.8,2.7,0.7c1.7-0.2,3.4-0.6,5-1.1c5.9-2,20.6-7.2,20.9-7.3c0.1,2,0.2,3.6,0.3,4c0,0,0,0,0,0c0,0,0,0,0,0h0
	c0,0,0,0,0,0c0,0,0,0,0,0c0,0,0,0,0,0l-0.1,0c-6.3,1.4-12.1,3.5-17.2,7.8c4.7,3,9.5,4.2,14.7,4c5-0.2,9.6-2,13.7-4.5
	c1.5,1.7,3.6,5.2,2.7,6.8c-1.2,2-3.4,2.5-6.9,1.4c0,0,0,0,0,0c-0.1,0.5-0.1,1-0.1,1.5c0.1,0.7,0.4,1.3,0.5,2
	c0.1,0.3,0.2,0.5,0.3,0.8c0,0,0-0.1,0-0.1c0,0-2.9,0.8-5.7,2.7c-2.2,1.5-5.9,3.7-6.9,6.1c-5.5,12.7-8.1,25.2-10.5,38.9
	c-0.3,1.8-0.5,3.5-0.8,5.3c-0.7,4.3-3.1,7.4-7,9.2c-3.9,1.7-12.6,3.2-15.3,2.7c-2.7-0.5-2.7-2.3-2.2-3.6
	C147.4,283.6,146.8,281.5,144.5,279.6z M161.1,265c-3.5,6.2-7.6,11.3-14.8,12.5c-2.6,0.4-5.2,0.2-5.4-0.7c-0.2-0.9,0.7-1.5,1.3-1.9
	c1.1-0.7,2.4-1.1,3.7-1.6c2.8-1,5.2-2.6,7-5.1C155.1,265,156.5,264.5,161.1,265z M156.9,258c-3.7-0.9-7.5-1.8-11.2-2.8
	c-1.7-0.5-3.4-1-5-1.8c-1.2-0.5-2.2-1.4-2.7-3.3c5.1,1.3,10,2.3,14.7,3.7c2.4,0.7,4.5,2.2,6.2,4.6C158,258.2,157.5,258.2,156.9,258z
	 M154.3,237.1c0.6-2.1,1.7-3.7,3.1-4.9c1.4-1.2,6.4-0.3,7.4,1.4c0.3,0.5,0.4,1.4,0.2,2c-0.3,1.3-1,2.4-2.2,3.2
	C160.7,235.2,158.5,235,154.3,237.1z M160.2,238.8c-1.2,1.2-3.5,1.7-5.4,0.9C156.1,237.8,158.7,237.7,160.2,238.8z M186.4,163.2
	c0,0,0,1.1,0,2.9l0,0L186.4,163.2z M186.2,207.6c0.7-0.7,1.6,0,2.1,0.7c0.3,0.5,0.6,0.9,1,1.3c1.8,1.9,4.2,2.2,6.8,1.6
	c0,0,0.2-0.1,1-0.2c0.1,0,0.3,0.1,0.6,0.3l-0.8,0.4c-3.6,1.9-7.1,2.9-10.9,3.4C188.1,213.8,188.6,209.4,186.2,207.6z M177.7,214.8
	c-0.8-0.1-3.7-1.5-5.3-2.2c1.3-0.6,3.1-1.6,3.6-1.8C176.2,212.1,176.7,213.3,177.7,214.8z M211.4,225.9c3.4,0.8,6.7,2.2,9.4,4.5
	c0.9,0.7,1.6,1.6,2.8,2.8c-1-0.1-1.5-0.1-1.9-0.2c-5.4-1.4-10.8-2.7-16.1-4.2c-2.1-0.6-4.2-1.5-6.2-2.5c-1.3-0.6-2.2-1.8-2.9-3.5
	C201.8,223.9,206.6,224.8,211.4,225.9z M175.3,270.6c1.6-10.8,8.2-32.7,8.4-33.3c1.6-4.7,6-9.5,12.1-11.4c0,0,0,0,0,0
	c2.8,3.2,6.5,4.2,10.3,5c4.3,1,8.6,1.9,12.8,3c1.8,0.5,3.5,1.2,5.3,2c1.1,0.5,2.2,1.1,2.8,2.7c-4.8,0.5-7.7,3.7-10.8,6.6
	c-0.5,0.5-1.1,0.9-1.6,1.5c-2,2.3-4.6,3.3-7.6,3.6c-2.3,0.2-4.4,1-6.2,2.3c-2.5,1.8-2.8,4.4-0.6,6.6c0.9,0.9,2.1,1.7,3.1,2.6
	c2.6,2.3,3.2,3.1,1.2,6.4c-0.6,1-0.7,2.1-0.3,3.2l-3.4,1.3c-0.2,0.1-0.3,0.2-0.5,0.2c-4.9,2-9.8,4-14.7,5.9c-1.7,0.6-3.4,1-5.2,1.3
	c-3.5,0.5-5.1-0.8-5.3-4.3C174.9,274.2,175.1,272.4,175.3,270.6z M226.1,241.3c-4.8,8.6-10.6,15.2-20.7,16.4c-1,0.1-2,0.3-2.9,0.1
	c-0.8-0.2-1.8-0.6-2.1-1.3c-0.4-1,0.8-2.2,4.2-2.9c3.4-0.7,11-4.5,15.1-9.1C221.2,242.8,222.9,241.2,226.1,241.3z M181.7,284
	c7.6-2.8,15.3-5.7,22.8-8.6c1.3-0.5,2.3-0.6,3.5-0.2c0,0,0,0,0,0c3.5,0.9,10.5,0.1,11.9-0.1c6.3-0.8,11.2,0.9,15.7,2.7
	c1.3,0.5,2.9,1.7,4.7,3.1c-15.9,4.9-31.9,10.7-46.4,19c-2.6-2.9-5-5.7-7.6-8.4c-2.6-2.6-5.7-4.5-9.8-5.8
	C178.8,285,180.2,284.5,181.7,284z M223.7,205.4c-2,0-4,0.4-6.3,0.6c0.6-2.6,2.3-4.5,4-6.4c0.2-0.2,0.5-0.3,0.7-0.3
	c2.5-0.1,5-0.2,7.3,1.1c1.8,1,2.3,2.1,1.6,4c-0.6,1.4-1.6,2.7-2.4,4c-0.2,0-0.4,0-0.7-0.1C227.5,205.9,225.6,205.4,223.7,205.4z
	 M225.1,208.2c-1.3,2.5-5,2.7-7.1,1.2C219.1,207,223.3,207,225.1,208.2z M97.4,212.3c0-65.4,53.2-118.6,118.6-118.6
	c16.4,0,32.1,3.4,46.4,9.4c-27.4,0.7-58.8,16.9-74.1,44.4c-1,1.7-1.8,3.2-1.8,5.2c0,3.4,0,6.8,0,10.4c0,0,0,0,0,0v0
	c-1-0.1-1.7-0.1-2.4-0.2c-4.1-0.5-8.2-1-12.3-1.4c-5.6-0.5-10.8,1-16,2.8c-5.6,1.9-10.5,4.7-14.2,9.6c-3.3,4.3-7.1,8.3-10.7,12.4
	c-2,2.3-3,4.8-3.1,7.8c-0.1,6.3-0.1,12.5-0.1,18.8c0,0.6,0,1.3,0.2,1.9c2.1,6,1.8,12.4,2.2,18.6c0.1,1.8,0.4,3.5,0.9,5.2
	c0.6,1.7,1.9,3,3.8,2.9c5-0.4,6.6,1.6,7.3,4.8c0.2,1.1-1.8,1.2-3,1.3c-0.7,0.1-1.4,0-2.1,0.1c-1.1,0.1-1.8,0.9-1.2,1.9
	c3.7,6.5,7.4,8.5,14.2,9.2c2.5,0.3,5.4,0.9,8,2.7c-1,0.5-1.7,0.9-2.5,1.2c-1.7,0.7-3,1.8-3.7,3.6c-1,2.4-2.7,3.9-5.2,4.7
	c-1.8,0.6-3.6,1.3-5.2,2.2c-2.9,1.6-2.9,5.3-0.1,6.8c2.3,1.2,3,2.9,2.6,5.3c-0.2,1.1-0.5,2.3-0.6,3.4c-0.2,2,0.6,3.4,2.5,3.9
	c6.1,1.7,13.8-0.9,17.8-1.2c3-0.2,6.1-0.1,9.1,0.3c3.2,0.4,5.9,1.9,7.9,4.6c2,2.8,3.4,5.1,5.7,8.3c-9.9,2.2-18.3,6.5-26.1,12.2
	C122.9,297,97.4,257.6,97.4,212.3z M162.4,318.1c6.4-4.6,13.8-7.7,22.2-9.5c-2.8,5.3-5,10.6-6.8,16
	C172.6,322.8,167.4,320.6,162.4,318.1z M211.2,330.8c-10.6-0.4-20.8-2.2-30.5-5.2c1.5-5.1,3.8-9.8,7-14.3c2.2-3.2,5.1-5.4,8.1-7.6
	c7.2-5.3,15.3-8.9,23.7-11.8c7.3-2.6,16.7-5.6,24-8.2c3,2.9,5.9,5.9,7.1,7.3C228.7,305.3,216.6,321.9,211.2,330.8z M306.7,250.8
	c-0.4,4.8-2.2,11.7-4.4,18.8c-19.4,4.4-35.2,11.3-48,19.1c-2.4-2.2-4.9-4.3-7.3-6.5c-1.8-1.6-3.6-3.2-5.3-4.9
	c-1.2-1.2-2.6-1.9-4.2-2.1c-3.4-0.5-6.7-1.1-10.2-2.1c0.7-0.3,1.3-0.6,2-0.8c13.4-5,26.8-10,40.3-14.9c10.9-4,20.2-10.7,29.1-17.9
	c2-1.6,3.8-3.4,5.5-5.3C306,239.7,307.2,245.1,306.7,250.8z M307.2,268.6c0,0,2.2-4.3,2.6-8.9c3.1,5.6,6.8,9.2,6.8,9.2
	C313.2,267.8,307.2,268.6,307.2,268.6z M318.9,264c-2.4-1.7-8.8-7.2-8.5-16.5c0,0,5,8.7,11.4,10.8C320.9,260.2,320,262.1,318.9,264z
	 M319.4,251.4c3.2-3.9,5.2-10.2,9.2-12.6c-1.2,4.9-2.8,10.1-5,15.5C322.2,253.5,321,252.7,319.4,251.4z"/>
</svg>
